<svg width="486" height="389" viewBox="0 0 486 389" fill="none" xmlns="http://www.w3.org/2000/svg">
<g clip-path="url(#clip0_1758_1084)">
<path d="M218.7 109.35C218.7 80.3486 207.179 52.535 186.672 32.0279C166.165 11.5208 138.351 0 109.35 0C80.3486 0 52.535 11.5208 32.0279 32.0279C11.5208 52.535 0 80.3486 0 109.35C0 138.351 11.5208 166.165 32.0279 186.672C52.535 207.179 80.3486 218.7 109.35 218.7C138.351 218.7 166.165 207.179 186.672 186.672C207.179 166.165 218.7 138.351 218.7 109.35ZM106.844 58.2441C111.552 53.5359 119.298 53.5359 124.006 58.2441L166.531 100.769C171.239 105.477 171.239 113.223 166.531 117.931L124.006 160.456C119.298 165.164 111.552 165.164 106.844 160.456C102.136 155.748 102.136 148.002 106.844 143.294L128.638 121.5H60.75C54.0675 121.5 48.6 116.032 48.6 109.35C48.6 102.667 54.0675 97.2 60.75 97.2H128.638L106.844 75.4059C102.136 70.6978 102.136 62.9522 106.844 58.2441ZM243 109.35C243 152.862 222.193 191.514 189.996 215.89C198.956 213.157 207.461 208.752 215.055 203.588C231.837 191.818 254.239 191.818 271.021 203.588C284.993 213.232 301.092 219.004 315.976 219.004C330.404 219.004 347.262 213.005 360.931 203.588C379.004 190.907 403.304 191.894 420.238 206.17C421.833 207.461 423.428 208.676 425.174 209.891L424.946 145.8H437.552C448.107 145.8 457.372 139.042 460.637 129.018C463.902 118.994 460.333 108.059 451.828 101.832L318.178 4.63219C309.521 -1.51875 297.979 -1.51875 289.474 4.63219L228.572 48.9037C237.76 67.0528 243 87.5559 243 109.35ZM257.048 235.33C248.619 229.331 237.381 229.331 228.952 235.33C211.866 247.101 190.983 255.15 170.1 255.15C149.673 255.15 128.107 246.949 111.324 235.33C102.288 228.876 89.9859 229.407 81.5569 236.621C70.6219 245.658 56.8772 252.568 43.1325 255.757C30.0712 258.795 21.9459 271.856 24.9834 284.918C28.0209 297.979 41.0822 306.104 54.1434 303.067C72.7481 298.738 88.2394 290.537 98.3391 284.082C120.361 295.928 145.041 303.75 170.1 303.75C194.324 303.75 216.118 296.232 231.154 289.398C235.558 287.347 239.583 285.373 243 283.551C246.417 285.373 250.366 287.423 254.846 289.398C269.882 296.232 291.752 303.75 315.9 303.75C340.959 303.75 365.639 295.928 387.661 284.158C397.837 290.537 413.252 298.814 431.857 303.142C444.918 306.18 457.979 298.055 461.017 284.993C464.054 271.932 455.929 258.871 442.867 255.833C429.123 252.644 415.378 245.734 404.443 236.697C396.014 229.483 383.712 229.027 374.676 235.406C357.969 246.949 336.327 255.15 315.9 255.15C295.017 255.15 274.134 247.101 257.048 235.33ZM257.048 320.38C248.619 314.381 237.381 314.381 228.952 320.38C211.866 332.151 190.983 340.2 170.1 340.2C149.673 340.2 128.107 331.999 111.324 320.38C102.288 313.926 89.9859 314.457 81.5569 321.671C70.6219 330.708 56.8772 337.618 43.1325 340.807C30.0712 343.845 21.9459 356.906 24.9834 369.967C28.0209 383.029 41.0822 391.154 54.1434 388.117C72.7481 383.788 88.2394 375.587 98.3391 369.132C120.361 380.978 145.041 388.8 170.1 388.8C194.324 388.8 216.118 381.282 231.154 374.448C235.558 372.397 239.583 370.423 243 368.601C246.417 370.423 250.366 372.473 254.846 374.448C269.882 381.282 291.752 388.8 315.9 388.8C340.959 388.8 365.639 380.978 387.661 369.208C397.837 375.587 413.252 383.864 431.857 388.192C444.918 391.23 457.979 383.105 461.017 370.043C464.054 356.982 455.929 343.921 442.867 340.883C429.123 337.694 415.378 330.784 404.443 321.747C396.014 314.609 383.712 314.077 374.676 320.456C357.969 331.999 336.327 340.2 315.9 340.2C295.017 340.2 274.134 332.151 257.048 320.38Z" fill="#4299E1"/>
</g>
<defs>
<clipPath id="clip0_1758_1084">
<rect width="486" height="388.8" fill="white"/>
</clipPath>
</defs>
</svg>
