<svg width="486" height="486" viewBox="0 0 486 486" fill="none" xmlns="http://www.w3.org/2000/svg">
<path fill-rule="evenodd" clip-rule="evenodd" d="M81 101.25V384.75C81 418.302 108.199 445.5 141.75 445.5H344.25C377.802 445.5 405 418.302 405 384.75V182.25C405 148.699 377.802 121.5 344.25 121.5H101.25C90.0663 121.5 81 112.434 81 101.25ZM146.812 243C146.812 234.612 153.612 227.812 162 227.812H324C332.388 227.812 339.188 234.612 339.188 243C339.188 251.388 332.388 258.187 324 258.187H162C153.612 258.187 146.812 251.388 146.812 243ZM146.812 313.875C146.812 305.487 153.612 298.687 162 298.687H273.375C281.763 298.687 288.562 305.487 288.562 313.875C288.562 322.263 281.763 329.062 273.375 329.062H162C153.612 329.062 146.812 322.263 146.812 313.875Z" fill="#4299E1"/>
<path d="M89.278 82.7638C96.3347 85.9284 101.25 93.0151 101.25 101.25H344.25C351.242 101.25 358.028 102.136 364.5 103.802V87.1973C364.5 62.551 342.67 43.6189 318.273 47.1043L99.6217 78.3402C95.7241 78.897 92.1923 80.4682 89.278 82.7638Z" fill="#4299E1"/>
</svg>
