<svg width="486" height="486" viewBox="0 0 486 486" fill="none" xmlns="http://www.w3.org/2000/svg">
<path d="M81 425.25H275.805C287.491 425.256 299.039 422.731 309.656 417.847C320.272 412.964 329.705 405.838 337.304 396.961L440.62 276.433C442.783 273.913 444.294 270.9 445.018 267.66C445.743 264.419 445.66 261.049 444.775 257.848C443.891 254.647 442.233 251.713 439.948 249.304C437.662 246.895 434.819 245.084 431.669 244.033L391.817 230.749C382.185 227.618 371.93 226.909 361.959 228.686C351.988 230.463 342.609 234.67 334.651 240.934L270.155 292.511L257.661 267.502C250.967 254.022 240.633 242.684 227.827 234.775C215.022 226.866 200.258 222.7 185.206 222.75H81C58.6642 222.75 40.5 240.914 40.5 263.25V384.75C40.5 407.086 58.6642 425.25 81 425.25ZM81 263.25H185.206C200.657 263.25 214.528 271.816 221.434 285.626L230.485 303.75H141.75V344.25H263.533C266.649 344.209 269.713 343.446 272.484 342.022L272.545 342.002L272.626 341.962H272.686L272.727 341.941H272.808L272.828 341.921C273.051 341.982 272.889 341.901 272.889 341.901C273.132 341.901 272.929 341.881 272.929 341.881H272.95L272.99 341.86L273.051 341.84L273.091 341.82L273.132 341.8L273.193 341.779L273.233 341.759L273.274 341.739L273.334 341.698L273.375 341.678L273.415 341.658L273.476 341.638L273.517 341.617H273.537L273.577 341.597L273.638 341.577L273.679 341.557C273.901 341.536 273.739 341.536 273.739 341.536L273.78 341.516C274.56 341.045 275.305 340.517 276.007 339.937L359.964 272.767C365.249 268.555 372.58 267.239 378.999 269.386L390.278 273.152L306.585 370.818C302.735 375.189 298 378.692 292.693 381.094C287.387 383.496 281.63 384.742 275.805 384.75H81V263.25ZM278.66 47.1014C269.325 57.3479 222.75 110.504 222.75 151.875C222.75 190.957 254.542 222.75 293.625 222.75C332.707 222.75 364.5 190.957 364.5 151.875C364.5 110.504 317.925 57.3479 308.59 47.1014C300.915 38.6774 286.335 38.6774 278.66 47.1014ZM324 151.875C324 168.622 310.372 182.25 293.625 182.25C276.878 182.25 263.25 168.622 263.25 151.875C263.25 137.538 278.194 112.711 293.625 92.4614C309.055 112.711 324 137.538 324 151.875Z" fill="#4299E1"/>
</svg>
