<svg width="486" height="486" viewBox="0 0 486 486" fill="none" xmlns="http://www.w3.org/2000/svg">
<path d="M218.25 69.75H416.25V119.25H218.25V69.75Z" fill="#4299E1"/>
<path d="M218.25 168.75H416.25V218.25H218.25V168.75Z" fill="#4299E1"/>
<path d="M416.25 267.75H218.25V317.25H416.25V267.75Z" fill="#4299E1"/>
<path d="M218.25 366.75H416.25V416.25H218.25V366.75Z" fill="#4299E1"/>
<path d="M126.391 311.062H69.7499V267.75H126.391C151.494 267.75 171.844 288.1 171.844 313.201C171.844 325.682 166.711 337.614 157.651 346.198L129.426 372.938H168.75V416.25H69.7499V369.809L127.863 314.755C128.289 314.352 128.531 313.79 128.531 313.201C128.531 312.02 127.573 311.062 126.391 311.062Z" fill="#4299E1"/>
<path d="M103.361 72.8438L62.9016 86.33L76.5983 127.42L97.5938 120.421V218.25H140.906V72.8438H103.361Z" fill="#4299E1"/>
</svg>
