<svg width="542" height="542" viewBox="0 0 542 542" fill="none" xmlns="http://www.w3.org/2000/svg">
<g clip-path="url(#clip0_1731_45)">
<path fill-rule="evenodd" clip-rule="evenodd" d="M253.825 0.508136L240.749 1.86314C177.302 8.19776 113.379 40.921 70.1549 89.2268C22.3573 142.648 -1.9311 208.941 0.304653 279.57C4.20028 401.554 88.0409 504.839 206.976 534.243C241.993 542.706 278.342 544.13 313.913 538.431C349.484 532.732 383.569 520.024 414.189 501.045C474.412 463.523 517.516 403.878 534.242 334.922C540.069 311.176 541.424 299.082 541.424 271C541.424 242.918 540.069 230.824 534.242 207.078C507.413 97.4923 417.17 16.8698 304.875 2.16801C295.254 0.914637 260.261 -0.203239 253.825 0.508136ZM299.895 52.9466C323.295 55.9216 346.04 62.7554 367.205 73.17C390.85 84.6875 407.177 96.4083 426.384 115.615C443.981 132.626 458.36 152.674 468.83 174.795C483.904 205.791 490.713 235.702 490.713 271C491.161 304.698 483.492 338.009 468.356 368.12C462.529 380.01 450.774 399.081 445.287 405.552L443.424 407.753L288.852 253.148L134.246 98.5763L136.448 96.7131C142.918 91.2254 161.99 79.4708 173.88 73.6443C212.88 54.3298 256.766 47.1217 299.895 52.9466ZM253.385 289.089L407.855 443.593L405.585 445.389C393.767 454.108 381.234 461.814 368.119 468.424C346.886 478.79 324.184 485.828 300.81 489.291C286.447 491.492 255.553 491.492 241.19 489.291C175.201 479.264 119.511 443.254 84.4502 387.903C75.8259 373.604 68.6322 358.491 62.9734 342.781C49.6657 303.68 47.4496 261.657 56.571 221.373C63.57 192.251 76.181 164.774 93.698 140.48C96.0693 137.262 98.2034 134.619 98.4744 134.619C98.7454 134.619 168.426 204.131 253.385 289.089Z" fill="#FF4500"/>
</g>
<defs>
<clipPath id="clip0_1731_45">
<rect width="542" height="542" fill="white"/>
</clipPath>
</defs>
</svg>
