<svg width="486" height="486" viewBox="0 0 486 486" fill="none" xmlns="http://www.w3.org/2000/svg">
<path fill-rule="evenodd" clip-rule="evenodd" d="M334.125 143.026C334.125 207.724 295.043 263.25 243 263.25C190.917 263.25 151.875 207.724 151.875 143.005C151.875 78.327 185.49 40.5 243 40.5C300.51 40.5 334.125 78.3067 334.125 143.026ZM83.0655 407.875C90.8618 417.15 124.436 445.5 243 445.5C361.564 445.5 395.118 417.15 402.935 407.896C403.659 407.006 404.195 405.978 404.508 404.874C404.822 403.77 404.906 402.614 404.757 401.476C402.975 383.616 386.897 303.75 243 303.75C99.1035 303.75 83.025 383.616 81.2228 401.476C81.0761 402.616 81.1639 403.773 81.4808 404.877C81.7977 405.98 82.337 406.988 83.0655 407.875Z" fill="#4299E1"/>
</svg>
