<svg width="573" height="573" viewBox="0 0 573 573" fill="none" xmlns="http://www.w3.org/2000/svg">
<g clip-path="url(#clip0_1714_43)">
<path d="M95.5 95.5H238.75V238.75H95.5V95.5ZM477.5 95.5V238.75H334.25V95.5H477.5ZM334.25 358.125H382V310.375H334.25V262.625H382V310.375H429.75V262.625H477.5V310.375H429.75V358.125H477.5V429.75H429.75V477.5H382V429.75H310.375V477.5H262.625V382H334.25V358.125ZM382 358.125V429.75H429.75V358.125H382ZM95.5 477.5V334.25H238.75V477.5H95.5ZM143.25 143.25V191H191V143.25H143.25ZM382 143.25V191H429.75V143.25H382ZM143.25 382V429.75H191V382H143.25ZM95.5 262.625H143.25V310.375H95.5V262.625ZM214.875 262.625H310.375V358.125H262.625V310.375H214.875V262.625ZM262.625 143.25H310.375V238.75H262.625V143.25ZM47.75 47.75V143.25H0V47.75C0 35.0859 5.03079 22.9405 13.9857 13.9857C22.9405 5.03079 35.0859 0 47.75 0L143.25 0V47.75H47.75ZM525.25 0C537.914 0 550.059 5.03079 559.014 13.9857C567.969 22.9405 573 35.0859 573 47.75V143.25H525.25V47.75H429.75V0H525.25ZM47.75 429.75V525.25H143.25V573H47.75C35.0859 573 22.9405 567.969 13.9857 559.014C5.03079 550.059 0 537.914 0 525.25V429.75H47.75ZM525.25 525.25V429.75H573V525.25C573 537.914 567.969 550.059 559.014 559.014C550.059 567.969 537.914 573 525.25 573H429.75V525.25H525.25Z" fill="#4299E1"/>
</g>
<defs>
<clipPath id="clip0_1714_43">
<rect width="573" height="573" fill="white"/>
</clipPath>
</defs>
</svg>
