<svg width="605" height="605" viewBox="0 0 605 605" fill="none" xmlns="http://www.w3.org/2000/svg">
<path fill-rule="evenodd" clip-rule="evenodd" d="M302.5 50.4171C163.279 50.4171 50.417 163.279 50.417 302.5C50.417 441.721 163.279 554.584 302.5 554.584C441.721 554.584 554.584 441.721 554.584 302.5C554.584 163.279 441.722 50.4171 302.5 50.4171ZM302.5 504.167C191.302 504.167 100.834 413.7 100.834 302.5C100.834 191.301 191.3 100.834 302.5 100.834C413.699 100.834 504.167 191.301 504.167 302.5C504.167 413.7 413.699 504.167 302.5 504.167ZM397.428 212.437L433.075 248.083L277.292 404.518L183.844 311.07L219.49 275.424L277.292 333.226L397.428 212.437Z" fill="#14AE5C"/>
</svg>
